<svg width="64" height="64" viewBox="0 0 64 64" fill="none" xmlns="http://www.w3.org/2000/svg">
<path d="M32.0011 -0.113037C23.4221 -0.113037 15.3571 3.22696 9.29206 9.29296C3.22606 15.359 -0.112938 23.423 -0.111938 32.001C-0.111938 40.579 3.22806 48.586 9.29206 54.652C15.3571 60.717 23.4211 64 31.9991 64H32.0041C49.7101 64 64.1141 49.649 64.1131 31.943C64.1141 23.365 60.7731 15.329 54.7081 9.26296C48.6441 3.19896 40.5791 -0.113037 32.0011 -0.113037ZM32.0001 62.113V63.113V62H31.9981C23.9551 62 16.3931 58.924 10.7061 53.238C5.02006 47.55 1.88806 40.017 1.88806 31.973C1.88706 23.929 5.01806 16.381 10.7061 10.693C16.3941 5.00496 23.9561 1.88096 32.0011 1.88096C40.0451 1.88096 47.6061 5.01696 53.2941 10.704C58.9821 16.392 62.1111 23.955 62.1111 31.999C62.1121 48.601 49.0001 62.112 32.0001 62.113Z" fill="#70B446"/>
<path d="M32.0001 8.99997C25.8561 8.99997 20.0811 11.393 15.7371 15.738C11.3931 20.082 9.00006 25.857 9.00006 32H11.0001C11.0001 26.392 13.1851 21.118 17.1511 17.151C21.1171 13.185 26.3911 11 32.0001 11C37.6091 11 42.8831 13.185 46.8501 17.152C50.8151 21.119 53.0001 26.392 53.0001 32H55.0001C55.0001 25.858 52.6071 20.082 48.2641 15.737C43.9211 11.392 38.1441 8.99997 32.0001 8.99997Z" fill="#70B446"/>
<path d="M30.7571 32.293L24.7571 25.346L23.2431 26.654L29.3151 33.686C29.1151 34.095 28.9981 34.543 29.0001 35.013C29.0041 35.814 29.3181 36.566 29.8881 37.13C30.4531 37.691 31.2041 38 32.0001 38C32.8071 38 33.5621 37.685 34.1311 37.112C35.2941 35.937 35.2861 34.034 34.1121 32.87C33.2331 31.999 31.8571 31.813 30.7571 32.293ZM32.7101 35.704C32.3341 36.082 31.6751 36.085 31.2961 35.71C31.1071 35.522 31.0011 35.271 31.0001 35.004C30.9991 34.737 31.1021 34.486 31.2911 34.296C31.4791 34.104 31.7311 34 32.0001 34C32.2661 34 32.5161 34.103 32.7041 34.291C33.0961 34.678 33.0981 35.312 32.7101 35.704Z" fill="#70B446"/>
</svg>
